<svg version="1.1" id="Layer_1" xmlns="http://www.w3.org/2000/svg" xmlns:xlink="http://www.w3.org/1999/xlink" x="0px" y="0px" viewBox="0 0 942.2 1080" style="enable-background:new 0 0 942.2 1080;" xml:space="preserve">
<style type="text/css">
	.st0{enable-background:new    ;}
	.st1{fill:#FF0040;}
	.st2{fill:#FFFFFF;}
</style>
<g>
	<g>
		<g class="st0">
			<g>
				<path class="st1" d="M574.6,815.7l20.1-151.5c22.2-8.2,35.5-10.9,40-8.1c4.5,2.8,5.3,15.8,2.2,39l-6.7,50.5
					c-2.9,21.8-7.6,36.7-14.2,44.6C609.6,798.1,595.7,806.6,574.6,815.7 M605.9,579.9l16-120.4c15.3-5.9,25.6-9.1,30.7-9.4
					c5.1-0.3,8.8,2.2,11.2,7.7c2.4,5.5,2.5,16.7,0.2,33.6c-4.3,32.1-8.9,52.4-13.8,60.8c-4.8,8.1-14,15-27.9,20.8
					c-0.5,0.2-1,0.4-1.5,0.6c-1.1,0.5-2.4,1-3.8,1.6C614,576.5,610.3,578,605.9,579.9 M484.8,426.6l-71.9,541.5L585.7,899
					c8.4-3.4,16.5-6.6,24.1-9.8c46.9-19.5,79-35.3,96.4-47.6c20.2-14.2,36-31.9,47.2-53.1c11.2-21.2,19.2-50,24.1-86.6l6.7-50.2
					c4.7-35.2,2-59-8-71.1c-10-12.1-31.8-15-65.4-8.5c31.9-19.1,53.9-37,66.1-53.6s20.4-40.9,24.6-72.5c6.2-46.8,3.3-77.7-8.8-92.8
					c-12.1-15.1-29.8-21.2-53.2-18.5c-23.3,2.8-58.5,13.6-105.6,32.4L484.8,426.6"></path>
			</g>
		</g>
	</g>
	<g>
		<g class="st0">
			<g>
				<path class="st1" d="M274,776.3c-18.2-14.2-29.4-26.1-33.8-35.5c-4.3-9.4-5.1-25.2-2.2-47.5l6.5-51.5c3-23.6,7.1-36.3,12.2-37.9
					c5.1-1.6,17.4,4.4,36.8,18L274,776.3 M290.1,525.1c-11.9-9.1-19.2-18.3-21.7-27.5c-2.6-9.5-1.9-30.6,2.3-63.4
					c2.2-17.3,5.1-28.3,8.9-33.1c3.8-4.8,8-6.4,12.9-4.8c4.9,1.6,14,7.3,27.3,17l-15.5,122.7c-3.8-3-7-5.5-9.6-7.5
					c-1.2-0.9-2.3-1.7-3.2-2.5C291,525.8,290.5,525.4,290.1,525.1 M465.2,423.6l-133-100.1c-40.9-30.4-72.5-54.1-94.4-62.7
					s-40.7-7-56.4,4.9c-15.6,11.9-26.5,41.6-32.5,89.3c-4.1,32.2-2.3,58.1,5.2,77.6s24.3,42.6,50.4,69.4
					c-30.9-14.8-52.8-17.4-65.7-8c-12.9,9.5-21.6,32.1-26.1,68.1l-6.5,51.1c-4.7,37.3-4.3,67.8,1.1,91.4
					c5.4,23.7,16.2,45.1,32.2,64.2c13.8,16.5,41.1,40.3,81.9,71.4c6.4,4.9,13.2,10,20.4,15.3l150,111.4L465.2,423.6"></path>
			</g>
		</g>
	</g>
	<polygon class="st1" points="257.9,240.4 475.9,412.3 596.1,364.8 552.8,328.5 506.6,348 332.1,210.8 	"></polygon>
	<polygon class="st1" points="399.2,186.1 615.8,358.2 749.8,305.2 706.5,270.3 650.1,293.4 602.3,256 650.1,236.9 609.3,204.1 
		560.8,223.4 519.8,190 569.7,169.8 526.8,135.2 	"></polygon>
</g>
<g>
	<g class="st0">
		<g>
			<polyline class="st2" points="372.9,902.9 371.5,913 334.7,888 332.3,904.6 378.3,936 382.1,909.2 372.9,902.9 			"></polyline>
			<polyline class="st2" points="341.1,842.8 337.2,870.6 383.2,901.9 387.3,873.1 378.1,866.8 376.3,879 366.2,872.1 367.7,861.7 
				359,855.8 357.5,866.2 348.7,860.2 350.3,849.1 341.1,842.8 			"></polyline>
			<path class="st2" d="M385.4,825.6l-12.9-8.8c0.4-2.4,0.9-3.8,1.4-4.1c0.3-0.2,0.8-0.1,1.6,0.3c0.6,0.3,1.3,0.7,2.1,1.3l4.3,2.9
				c1.9,1.3,3,2.4,3.4,3.4C385.6,821.5,385.7,823.2,385.4,825.6 M365.4,811.9l-10.2-7c0.3-1.7,0.5-2.8,0.7-3.3
				c0.2-0.5,0.7-0.7,1.3-0.7c0.3,0,0.7,0.1,1.2,0.4c0.5,0.3,1.1,0.6,1.9,1.1c2.7,1.9,4.3,3.2,4.9,4.1c0.5,0.8,0.7,2.1,0.4,3.7
				C365.5,810.6,365.5,811.2,365.4,811.9 M359.4,785.3c-2.1-1-3.8-1.4-5.1-1.1c-2,0.4-3.5,1.8-4.5,4.1c-1,2.3-1.8,6.1-2.6,11.3
				l-2.4,16.6l46,31.3l2.7-19.2c1-6.7,1.3-11.3,1.1-13.8c-0.2-2.5-1-4.8-2.4-6.8c-1.4-2-3.6-4.1-6.7-6.2l-4.3-2.9
				c-1-0.7-2-1.2-2.8-1.7c-1.7-0.8-3.1-1.1-4.1-0.8c-1.6,0.4-3.1,2.3-4.2,5.7c-0.1-3.8-0.6-6.7-1.5-8.6c-0.9-1.9-2.7-3.8-5.4-5.6
				C361.9,786.6,360.6,785.8,359.4,785.3"></path>
			<path class="st2" d="M391.6,777.4c-0.9-0.4-2.3-1.3-4.2-2.6l-21.5-14.6c-2.4-1.6-3.8-2.8-4.2-3.6c-0.4-0.8-0.6-1.6-0.4-2.5
				c0.2-1,0.5-1.5,1.2-1.4c0.2,0,0.5,0.1,0.9,0.3c0.8,0.4,1.8,1,3.2,2l21.1,14.4c2.7,1.8,4.4,3.2,5.1,4c0.7,0.8,0.9,1.8,0.8,2.9
				c-0.2,1.1-0.6,1.6-1.2,1.5C392.2,777.7,391.9,777.6,391.6,777.4 M366,736.8c-1.9-0.9-3.7-1.1-5.5-0.5c-1.8,0.6-3.4,1.9-4.6,4.1
				c-1.2,2.2-2,5-2.5,8.4c-0.5,3.6-0.5,7.1-0.1,10.4c0.5,3.3,1.4,6.3,2.7,9c1.4,2.7,3,4.8,4.9,6.4c1.9,1.6,5.1,4,9.8,7.1l7.9,5.4
				c4.7,3.2,8.1,5.3,10,6.3c0.1,0,0.1,0.1,0.2,0.1c1.9,0.9,3.7,1.1,5.5,0.5c1.8-0.6,3.4-1.9,4.6-4.1s2-5,2.5-8.4
				c0.5-3.6,0.5-7.1,0.1-10.4c-0.5-3.3-1.4-6.3-2.7-9c-1.4-2.7-3-4.8-4.9-6.4c-1.9-1.6-5.1-4-9.8-7.1l-7.9-5.4
				c-4.7-3.2-8.1-5.3-10-6.3C366.1,736.9,366.1,736.9,366,736.8"></path>
			<polyline class="st2" points="363.8,683.7 361.8,697.6 382.5,711.7 360.5,706.9 358.5,720.8 404.5,752.2 406.5,738.2 385.6,724 
				407.7,729.6 409.8,715 363.8,683.7 			"></polyline>
			<path class="st2" d="M405.7,683.1l-30.3-20.6c0.3-1.8,0.6-3,0.9-3.4c0.4-0.5,0.9-0.6,1.5-0.4c0.1,0,0.2,0.1,0.4,0.1
				c0.7,0.3,1.9,1.1,3.7,2.3l17.9,12.2c3.1,2.1,4.9,3.7,5.5,4.7C405.9,679,406.1,680.7,405.7,683.1 M378.5,641
				c-0.2-0.1-0.3-0.2-0.5-0.2c-1.5-0.6-3-0.6-4.4,0c-1.4,0.6-2.6,2.2-3.5,4.7c-0.9,2.5-2,7.7-3.1,15.8l-1.8,12.4l46,31.4l3-21
				c0.6-4,0.8-7.1,0.8-9.3c0-2.2-0.3-4.2-0.9-6.1c-0.6-1.9-1.5-3.6-2.9-5.1c-1.3-1.5-4-3.6-8.2-6.5l-16.1-11
				C383,643.6,380.2,641.8,378.5,641"></path>
			<path class="st2" d="M377.1,590.3l-2.2,15.3c6.9,7.1,12.7,12.7,17.5,17c-0.9-0.5-2-1.1-3.4-1.7c-3.5-1.7-8.6-3.9-15.4-6.6
				l-2.2,15.3l31,8.3l16.7,11.3l2.2-15.4l-16.7-11.4L377.1,590.3"></path>
			<path class="st2" d="M421,576.1l-12.9-8.8c0.4-2.4,0.9-3.8,1.4-4.1c0.3-0.2,0.8-0.1,1.6,0.3c0.6,0.3,1.3,0.7,2.1,1.3l4.3,2.9
				c1.9,1.3,3,2.4,3.4,3.3C421.2,572,421.2,573.7,421,576.1 M400.9,562.4l-10.2-7c0.3-1.7,0.5-2.8,0.7-3.3c0.2-0.5,0.7-0.7,1.3-0.7
				c0.3,0,0.7,0.1,1.2,0.4c0.5,0.3,1.2,0.6,1.9,1.1c2.7,1.9,4.4,3.2,4.9,4c0.5,0.8,0.7,2.1,0.4,3.7
				C401.1,561.1,401,561.7,400.9,562.4 M395,535.8c-2.1-1-3.8-1.4-5.1-1.1c-2,0.4-3.5,1.8-4.5,4.1c-1,2.3-1.8,6.1-2.6,11.3
				l-2.4,16.6l46,31.4l2.7-19.3c1-6.7,1.3-11.3,1.1-13.8c-0.2-2.5-1-4.8-2.4-6.8c-1.4-2-3.6-4.1-6.7-6.2l-4.3-2.9
				c-1-0.7-1.9-1.2-2.8-1.6c-1.7-0.8-3.1-1.1-4.2-0.8c-1.6,0.4-3.1,2.3-4.2,5.7c-0.1-3.8-0.6-6.7-1.5-8.6s-2.7-3.8-5.4-5.6
				C397.4,537.1,396.1,536.3,395,535.8"></path>
			<polyline class="st2" points="427.9,517.1 426.4,527.2 389.6,502.1 387.3,518.8 433.3,550.1 437.1,523.4 427.9,517.1 			"></polyline>
			<path class="st2" d="M431.8,495.1c-0.9-0.4-2.3-1.3-4.2-2.6l-21.5-14.6c-2.4-1.6-3.8-2.8-4.2-3.6c-0.4-0.8-0.6-1.6-0.4-2.5
				c0.1-1,0.5-1.5,1.2-1.4c0.2,0,0.5,0.1,1,0.3c0.8,0.4,1.8,1,3.2,2l21.2,14.4c2.7,1.8,4.4,3.2,5.1,4c0.7,0.8,0.9,1.8,0.8,2.9
				c-0.2,1.1-0.6,1.6-1.2,1.5C432.4,495.4,432.1,495.3,431.8,495.1 M406.3,454.6c-1.9-0.9-3.7-1.1-5.5-0.6c-1.8,0.6-3.4,1.9-4.6,4.1
				c-1.2,2.2-2,5-2.5,8.4c-0.5,3.6-0.5,7.1-0.1,10.4c0.5,3.3,1.4,6.3,2.7,9c1.4,2.7,3,4.8,4.9,6.4c1.9,1.6,5.1,4,9.8,7.1l7.9,5.4
				c4.7,3.2,8.1,5.3,10,6.3c0.1,0,0.1,0.1,0.2,0.1c1.9,0.9,3.7,1.1,5.5,0.5c1.8-0.6,3.4-1.9,4.6-4.1c1.2-2.2,2-5,2.5-8.4
				c0.5-3.6,0.5-7.1,0.1-10.4c-0.5-3.3-1.4-6.3-2.7-9c-1.4-2.7-3-4.8-4.9-6.4c-1.9-1.6-5.1-4-9.8-7.1l-7.9-5.4
				c-4.7-3.2-8.1-5.3-10-6.3C406.4,454.6,406.3,454.6,406.3,454.6"></path>
			<path class="st2" d="M413.7,407.3c-1.3-0.6-2.5-1-3.5-1.2c-2.1-0.4-4.1,0.5-6,2.8c-1.9,2.2-3.2,5.8-3.9,10.7
				c-0.7,5-0.4,9.6,0.8,13.8c1.2,4.3,2.8,7.4,4.7,9.4c1.9,2,5,4.5,9.4,7.5l13.7,9.3c3.1,2.1,5.4,3.5,7.1,4.3c0,0,0.1,0,0.1,0.1
				c1.6,0.8,3.3,1,4.9,0.7c1.6-0.3,3.1-1.3,4.4-3.1c1.3-1.8,2.2-4.1,2.6-6.8c0.3-2.3,0.3-4.6-0.2-6.8c-0.5-2.2-1.3-4.4-2.6-6.5
				l3.5,0.7l1.5-10.5l-24.7-16.8l-2.8,19.5l7,4.8l0.5-3.4l5.5,3.7c2.1,1.5,3.5,2.7,4.2,3.6c0.7,0.9,0.9,2,0.8,3.2
				c-0.2,1.1-0.6,1.6-1.3,1.5c-0.3,0-0.7-0.2-1.1-0.4c-0.8-0.4-1.8-1-3-1.8L413,430.6c-2.3-1.6-3.8-2.8-4.3-3.5
				c-0.5-0.8-0.7-1.6-0.5-2.7c0.2-1.2,0.6-1.7,1.3-1.6c0.2,0,0.5,0.1,0.8,0.3c0.9,0.4,2.3,1.3,4.2,2.6l4.2,2.9l2.4-16.6l-2-1.4
				C417.1,409.1,415.3,408.1,413.7,407.3"></path>
		</g>
	</g>
</g>
</svg>